
<svg id="sw-js-blob-svg" viewBox="0 0 100 100" xmlns="http://www.w3.org/2000/svg" version="1.1">
    <path d="M19.6,-24.6C26.1,-17.8,32.5,-12.4,35.3,-5C38.2,2.4,37.3,11.7,32.3,17C27.3,22.2,18.1,23.4,10.5,24.2C2.8,25,-3.3,25.4,-11.5,25.2C-19.7,25,-29.9,24.1,-33.1,18.9C-36.2,13.8,-32.2,4.4,-30.6,-5.5C-29,-15.4,-29.7,-25.8,-25,-32.8C-20.3,-39.9,-10.1,-43.5,-1.8,-41.4C6.5,-39.2,13,-31.3,19.6,-24.6Z" width="100%" height="100%" transform="translate(50 50)" stroke-width="0" style="transition: all 0.3s ease 0s;"></path>
</svg>