<svg id="sw-js-blob-svg" viewBox="0 0 100 100" xmlns="http://www.w3.org/2000/svg" version="1.1">
    <path d="M19.4,-31.3C25.3,-26.4,30.3,-21.3,32.2,-15.3C34,-9.3,32.7,-2.4,31.3,4.2C29.8,10.7,28.2,16.8,24.2,20.4C20.2,24,13.9,25,7.4,28.4C0.8,31.8,-5.9,37.5,-12.9,38.1C-19.8,38.7,-26.8,34,-30,27.6C-33.2,21.1,-32.6,12.8,-32.6,5.3C-32.7,-2.2,-33.5,-8.9,-31.6,-15C-29.6,-21,-25,-26.3,-19.3,-31.3C-13.6,-36.2,-6.8,-40.7,0,-40.7C6.8,-40.7,13.5,-36.1,19.4,-31.3Z" width="100%" height="100%" transform="translate(50 50)" stroke-width="0" style="transition: all 0.3s ease 0s;"></path>
</svg>