<svg id="sw-js-blob-svg" viewBox="0 0 100 100" xmlns="http://www.w3.org/2000/svg" version="1.1">
    <path d="M15.1,-21.9C20.6,-19.9,26.8,-17.5,30.4,-12.9C34,-8.3,34.9,-1.6,33.3,4.3C31.6,10.1,27.4,15.1,23.7,22C20,29,16.9,37.9,11.5,39.8C6.1,41.6,-1.5,36.4,-7.2,31.6C-12.9,26.7,-16.7,22.2,-20.7,17.8C-24.7,13.4,-29,9.1,-30.2,4C-31.5,-1,-29.6,-6.9,-28,-13.8C-26.4,-20.7,-25,-28.7,-20.4,-31C-15.7,-33.4,-7.9,-30,-1.5,-27.6C4.8,-25.2,9.6,-23.8,15.1,-21.9Z" width="100%" height="100%" transform="translate(50 50)" stroke-width="0" style="transition: all 0.3s ease 0s;"></path>
</svg>