<?xml version="1.0" standalone="no"?>
<svg xmlns:xlink="http://www.w3.org/1999/xlink" id="wave" style="transform:rotate(0deg); transition: 0.3s" viewBox="0 0 1440 490" version="1.1" xmlns="http://www.w3.org/2000/svg"><defs><linearGradient id="sw-gradient-0" x1="0" x2="0" y1="1" y2="0"><stop stop-color="rgba(243, 106, 62, 1)" offset="0%"/><stop stop-color="rgba(255, 179, 11, 1)" offset="100%"/></linearGradient></defs><path style="transform:translate(0, 0px); opacity:1" fill="url(#sw-gradient-0)" d="M0,245L48,261.3C96,278,192,310,288,334.8C384,359,480,376,576,367.5C672,359,768,327,864,302.2C960,278,1056,261,1152,285.8C1248,310,1344,376,1440,383.8C1536,392,1632,343,1728,269.5C1824,196,1920,98,2016,98C2112,98,2208,196,2304,220.5C2400,245,2496,196,2592,147C2688,98,2784,49,2880,89.8C2976,131,3072,261,3168,318.5C3264,376,3360,359,3456,343C3552,327,3648,310,3744,277.7C3840,245,3936,196,4032,212.3C4128,229,4224,310,4320,326.7C4416,343,4512,294,4608,277.7C4704,261,4800,278,4896,253.2C4992,229,5088,163,5184,179.7C5280,196,5376,294,5472,285.8C5568,278,5664,163,5760,163.3C5856,163,5952,278,6048,343C6144,408,6240,425,6336,375.7C6432,327,6528,212,6624,204.2C6720,196,6816,294,6864,343L6912,392L6912,490L6864,490C6816,490,6720,490,6624,490C6528,490,6432,490,6336,490C6240,490,6144,490,6048,490C5952,490,5856,490,5760,490C5664,490,5568,490,5472,490C5376,490,5280,490,5184,490C5088,490,4992,490,4896,490C4800,490,4704,490,4608,490C4512,490,4416,490,4320,490C4224,490,4128,490,4032,490C3936,490,3840,490,3744,490C3648,490,3552,490,3456,490C3360,490,3264,490,3168,490C3072,490,2976,490,2880,490C2784,490,2688,490,2592,490C2496,490,2400,490,2304,490C2208,490,2112,490,2016,490C1920,490,1824,490,1728,490C1632,490,1536,490,1440,490C1344,490,1248,490,1152,490C1056,490,960,490,864,490C768,490,672,490,576,490C480,490,384,490,288,490C192,490,96,490,48,490L0,490Z"/><defs><linearGradient id="sw-gradient-1" x1="0" x2="0" y1="1" y2="0"><stop stop-color="rgba(243, 106, 62, 1)" offset="0%"/><stop stop-color="rgba(255, 179, 11, 1)" offset="100%"/></linearGradient></defs><path style="transform:translate(0, 50px); opacity:0.9" fill="url(#sw-gradient-1)" d="M0,441L48,400.2C96,359,192,278,288,261.3C384,245,480,294,576,326.7C672,359,768,376,864,343C960,310,1056,229,1152,220.5C1248,212,1344,278,1440,302.2C1536,327,1632,310,1728,294C1824,278,1920,261,2016,253.2C2112,245,2208,245,2304,277.7C2400,310,2496,376,2592,375.7C2688,376,2784,310,2880,253.2C2976,196,3072,147,3168,106.2C3264,65,3360,33,3456,57.2C3552,82,3648,163,3744,171.5C3840,180,3936,114,4032,138.8C4128,163,4224,278,4320,343C4416,408,4512,425,4608,375.7C4704,327,4800,212,4896,163.3C4992,114,5088,131,5184,114.3C5280,98,5376,49,5472,89.8C5568,131,5664,261,5760,326.7C5856,392,5952,392,6048,400.2C6144,408,6240,425,6336,432.8C6432,441,6528,441,6624,367.5C6720,294,6816,147,6864,73.5L6912,0L6912,490L6864,490C6816,490,6720,490,6624,490C6528,490,6432,490,6336,490C6240,490,6144,490,6048,490C5952,490,5856,490,5760,490C5664,490,5568,490,5472,490C5376,490,5280,490,5184,490C5088,490,4992,490,4896,490C4800,490,4704,490,4608,490C4512,490,4416,490,4320,490C4224,490,4128,490,4032,490C3936,490,3840,490,3744,490C3648,490,3552,490,3456,490C3360,490,3264,490,3168,490C3072,490,2976,490,2880,490C2784,490,2688,490,2592,490C2496,490,2400,490,2304,490C2208,490,2112,490,2016,490C1920,490,1824,490,1728,490C1632,490,1536,490,1440,490C1344,490,1248,490,1152,490C1056,490,960,490,864,490C768,490,672,490,576,490C480,490,384,490,288,490C192,490,96,490,48,490L0,490Z"/><defs><linearGradient id="sw-gradient-2" x1="0" x2="0" y1="1" y2="0"><stop stop-color="rgba(243, 106, 62, 1)" offset="0%"/><stop stop-color="rgba(255, 179, 11, 1)" offset="100%"/></linearGradient></defs><path style="transform:translate(0, 100px); opacity:0.8" fill="url(#sw-gradient-2)" d="M0,441L48,400.2C96,359,192,278,288,212.3C384,147,480,98,576,130.7C672,163,768,278,864,285.8C960,294,1056,196,1152,204.2C1248,212,1344,327,1440,351.2C1536,376,1632,310,1728,269.5C1824,229,1920,212,2016,212.3C2112,212,2208,229,2304,261.3C2400,294,2496,343,2592,367.5C2688,392,2784,392,2880,343C2976,294,3072,196,3168,179.7C3264,163,3360,229,3456,245C3552,261,3648,229,3744,253.2C3840,278,3936,359,4032,400.2C4128,441,4224,441,4320,416.5C4416,392,4512,343,4608,334.8C4704,327,4800,359,4896,326.7C4992,294,5088,196,5184,196C5280,196,5376,294,5472,326.7C5568,359,5664,327,5760,334.8C5856,343,5952,392,6048,408.3C6144,425,6240,408,6336,400.2C6432,392,6528,392,6624,400.2C6720,408,6816,425,6864,432.8L6912,441L6912,490L6864,490C6816,490,6720,490,6624,490C6528,490,6432,490,6336,490C6240,490,6144,490,6048,490C5952,490,5856,490,5760,490C5664,490,5568,490,5472,490C5376,490,5280,490,5184,490C5088,490,4992,490,4896,490C4800,490,4704,490,4608,490C4512,490,4416,490,4320,490C4224,490,4128,490,4032,490C3936,490,3840,490,3744,490C3648,490,3552,490,3456,490C3360,490,3264,490,3168,490C3072,490,2976,490,2880,490C2784,490,2688,490,2592,490C2496,490,2400,490,2304,490C2208,490,2112,490,2016,490C1920,490,1824,490,1728,490C1632,490,1536,490,1440,490C1344,490,1248,490,1152,490C1056,490,960,490,864,490C768,490,672,490,576,490C480,490,384,490,288,490C192,490,96,490,48,490L0,490Z"/></svg>