<?xml version="1.0" standalone="no"?>
<svg xmlns:xlink="http://www.w3.org/1999/xlink" id="wave" style="transform:rotate(0deg); transition: 0.3s" viewBox="0 0 1440 490" version="1.1" xmlns="http://www.w3.org/2000/svg">     
    <path style="transform:translate(0, 0px); opacity:1" d="M0,196L120,228.7C240,261,480,327,720,334.8C960,343,1200,294,1440,228.7C1680,163,1920,82,2160,114.3C2400,147,2640,294,2880,367.5C3120,441,3360,441,3600,375.7C3840,310,4080,180,4320,155.2C4560,131,4800,212,5040,212.3C5280,212,5520,131,5760,81.7C6000,33,6240,16,6480,57.2C6720,98,6960,196,7200,236.8C7440,278,7680,261,7920,261.3C8160,261,8400,278,8640,253.2C8880,229,9120,163,9360,138.8C9600,114,9840,131,10080,147C10320,163,10560,180,10800,212.3C11040,245,11280,294,11520,277.7C11760,261,12000,180,12240,179.7C12480,180,12720,261,12960,318.5C13200,376,13440,408,13680,424.7C13920,441,14160,441,14400,432.8C14640,425,14880,408,15120,408.3C15360,408,15600,425,15840,367.5C16080,310,16320,180,16560,147C16800,114,17040,180,17160,212.3L17280,245L17280,490L17160,490C17040,490,16800,490,16560,490C16320,490,16080,490,15840,490C15600,490,15360,490,15120,490C14880,490,14640,490,14400,490C14160,490,13920,490,13680,490C13440,490,13200,490,12960,490C12720,490,12480,490,12240,490C12000,490,11760,490,11520,490C11280,490,11040,490,10800,490C10560,490,10320,490,10080,490C9840,490,9600,490,9360,490C9120,490,8880,490,8640,490C8400,490,8160,490,7920,490C7680,490,7440,490,7200,490C6960,490,6720,490,6480,490C6240,490,6000,490,5760,490C5520,490,5280,490,5040,490C4800,490,4560,490,4320,490C4080,490,3840,490,3600,490C3360,490,3120,490,2880,490C2640,490,2400,490,2160,490C1920,490,1680,490,1440,490C1200,490,960,490,720,490C480,490,240,490,120,490L0,490Z"/>
</svg>