<?xml version="1.0" standalone="no"?>
<svg xmlns:xlink="http://www.w3.org/1999/xlink" id="wave" style="transform:rotate(0deg); transition: 0.3s" viewBox="0 0 1440 490" version="1.1" xmlns="http://www.w3.org/2000/svg">
    <path style="transform:translate(0, 0px); opacity:1" d="M0,196L60,228.7C120,261,240,327,360,334.8C480,343,600,294,720,228.7C840,163,960,82,1080,114.3C1200,147,1320,294,1440,367.5C1560,441,1680,441,1800,375.7C1920,310,2040,180,2160,155.2C2280,131,2400,212,2520,212.3C2640,212,2760,131,2880,81.7C3000,33,3120,16,3240,57.2C3360,98,3480,196,3600,236.8C3720,278,3840,261,3960,261.3C4080,261,4200,278,4320,253.2C4440,229,4560,163,4680,138.8C4800,114,4920,131,5040,147C5160,163,5280,180,5400,212.3C5520,245,5640,294,5760,277.7C5880,261,6000,180,6120,179.7C6240,180,6360,261,6480,318.5C6600,376,6720,408,6840,424.7C6960,441,7080,441,7200,432.8C7320,425,7440,408,7560,408.3C7680,408,7800,425,7920,367.5C8040,310,8160,180,8280,147C8400,114,8520,180,8580,212.3L8640,245L8640,490L8580,490C8520,490,8400,490,8280,490C8160,490,8040,490,7920,490C7800,490,7680,490,7560,490C7440,490,7320,490,7200,490C7080,490,6960,490,6840,490C6720,490,6600,490,6480,490C6360,490,6240,490,6120,490C6000,490,5880,490,5760,490C5640,490,5520,490,5400,490C5280,490,5160,490,5040,490C4920,490,4800,490,4680,490C4560,490,4440,490,4320,490C4200,490,4080,490,3960,490C3840,490,3720,490,3600,490C3480,490,3360,490,3240,490C3120,490,3000,490,2880,490C2760,490,2640,490,2520,490C2400,490,2280,490,2160,490C2040,490,1920,490,1800,490C1680,490,1560,490,1440,490C1320,490,1200,490,1080,490C960,490,840,490,720,490C600,490,480,490,360,490C240,490,120,490,60,490L0,490Z"/>
</svg>